<?xml version="1.0" encoding="utf-8"?>
<!-- Generator: Adobe Illustrator 22.1.0, SVG Export Plug-In . SVG Version: 6.00 Build 0)  -->
<svg version="1.1" id="Layer_1" xmlns="http://www.w3.org/2000/svg" xmlns:xlink="http://www.w3.org/1999/xlink" x="0px" y="0px"
	 viewBox="0 0 195 195" style="enable-background:new 0 0 195 195;" xml:space="preserve">
<style type="text/css">
	.st0{fill:#0A4080;}
</style>
<path class="st0" d="M195,97.5C195,43.6,151.4,0,97.5,0S0,43.6,0,97.5S43.6,195,97.5,195c0.6,0,1.1,0,1.7,0v-75.9H78.3V94.7h20.9
	v-18c0-20.8,12.7-32.2,31.3-32.2c8.9,0,16.6,0.6,18.8,1v21.8h-12.8c-10.1,0-12.1,4.8-12.1,11.8v15.5h24.2l-3.2,24.4h-21v72.2
	C165.2,179.5,195,142,195,97.5z"/>
</svg>
