<?xml version="1.0" encoding="utf-8"?>
<!-- Generator: Adobe Illustrator 22.1.0, SVG Export Plug-In . SVG Version: 6.00 Build 0)  -->
<svg version="1.1" id="Capa_1" xmlns="http://www.w3.org/2000/svg" xmlns:xlink="http://www.w3.org/1999/xlink" x="0px" y="0px"
	 viewBox="0 0 195 195" style="enable-background:new 0 0 195 195;" xml:space="preserve">
<style type="text/css">
	.st0{fill:#0A4080;}
</style>
<title>Monogram</title>
<desc>Created with Sketch.</desc>
<g>
	<path class="st0" d="M116.2,97.5c0,10.3-8.3,18.7-18.7,18.7s-18.7-8.3-18.7-18.7s8.3-18.7,18.7-18.7S116.2,87.2,116.2,97.5z"/>
	<path class="st0" d="M141.1,64.5c-0.9-2.4-2.3-4.6-4.2-6.4c-1.8-1.9-4-3.3-6.4-4.2c-2-0.8-5-1.7-10.4-1.9
		c-5.9-0.3-7.7-0.3-22.6-0.3c-15,0-16.7,0-22.6,0.3c-5.4,0.3-8.4,1.2-10.4,1.9C62,54.8,59.8,56.2,58,58c-1.9,1.8-3.3,4-4.2,6.4
		c-0.8,2-1.7,5-1.9,10.4c-0.3,5.9-0.3,7.7-0.3,22.6c0,14.9,0.1,16.7,0.3,22.6c0.3,5.4,1.1,8.4,1.9,10.4c0.9,2.4,2.3,4.6,4.2,6.4
		c1.8,1.9,4,3.3,6.4,4.2c2,0.8,5,1.7,10.4,1.9c5.9,0.3,7.7,0.3,22.6,0.3s16.7,0,22.6-0.3c5.4-0.3,8.4-1.1,10.4-1.9
		c4.9-1.9,8.8-5.8,10.6-10.6c0.8-2,1.7-5,1.9-10.4c0.3-5.9,0.3-7.7,0.3-22.6c0-15,0-16.7-0.3-22.6C142.8,69.4,141.9,66.5,141.1,64.5
		z M97.5,126.3c-15.9,0-28.8-12.9-28.8-28.8s12.9-28.8,28.8-28.8s28.8,12.9,28.8,28.8S113.4,126.3,97.5,126.3z M127.4,74.3
		c-3.7,0-6.7-3-6.7-6.7c0-3.7,3-6.7,6.7-6.7c3.7,0,6.7,3,6.7,6.7C134.1,71.3,131.1,74.3,127.4,74.3z"/>
	<path class="st0" d="M97.5,0C43.6,0,0,43.6,0,97.5S43.6,195,97.5,195S195,151.4,195,97.5S151.4,0,97.5,0z M153.1,120.6
		c-0.3,5.9-1.2,10-2.6,13.6c-2.9,7.5-8.8,13.5-16.4,16.4c-3.5,1.4-7.6,2.3-13.6,2.6c-6,0.3-7.9,0.3-23.1,0.3s-17.1-0.1-23.1-0.3
		c-5.9-0.3-10-1.2-13.6-2.6c-3.7-1.4-7.1-3.6-9.9-6.5c-2.9-2.8-5.1-6.2-6.5-9.9c-1.4-3.5-2.3-7.6-2.6-13.6c-0.3-6-0.3-7.9-0.3-23.1
		s0.1-17.1,0.3-23.1c0.3-5.9,1.2-10,2.6-13.6c1.4-3.7,3.6-7.1,6.5-9.9c2.8-2.9,6.2-5.1,9.9-6.5c3.6-1.4,7.6-2.3,13.6-2.6
		c6-0.3,7.9-0.3,23.1-0.3s17.1,0.1,23.1,0.3c5.9,0.3,10,1.2,13.6,2.6c3.7,1.4,7.1,3.6,9.9,6.5c2.9,2.8,5.1,6.2,6.5,9.9
		c1.4,3.6,2.3,7.6,2.6,13.6c0.3,6,0.3,7.9,0.3,23.1S153.4,114.6,153.1,120.6z"/>
</g>
</svg>
