<?xml version="1.0" encoding="utf-8"?>
<!-- Generator: Adobe Illustrator 22.0.1, SVG Export Plug-In . SVG Version: 6.00 Build 0)  -->
<svg version="1.1" id="Capa_1" xmlns="http://www.w3.org/2000/svg" xmlns:xlink="http://www.w3.org/1999/xlink" x="0px" y="0px"
	 viewBox="0 0 2435 80" style="enable-background:new 0 0 2435 80;" xml:space="preserve">
<style type="text/css">
	.st0{opacity:0.4;}
	.st1{opacity:0.4;fill:none;stroke:#F4F4F4;stroke-width:2;stroke-miterlimit:10;enable-background:new    ;}
	.st2{opacity:0.3;fill:none;stroke:#F4F4F4;stroke-width:2;stroke-miterlimit:10;enable-background:new    ;}
	.st3{fill:#BC4614;}
</style>
<g class="st0">
	<line class="st1" x1="0" y1="20" x2="2435" y2="20"/>
	<line class="st1" x1="0" y1="60" x2="2435" y2="60"/>
</g>
<line class="st2" x1="73" y1="0" x2="73" y2="80"/>
<path class="st3" d="M36.6,51.6h-4.2c-5.5,0-10-4.5-10-10v-4.2c0-5.5,4.5-10,10-10h4.2c5.5,0,10,4.5,10,10v4.2
	C46.6,47.1,42.1,51.6,36.6,51.6z"/>
<path class="st3" d="M46.7,0v2.2c0,5.5-4.5,10-10,10h-4.2c-5.5,0-10-4.5-10-10V0"/>
<path class="st3" d="M22.4,80v-2.1c0-5.5,4.5-10,10-10h4.2c5.5,0,10,4.5,10,10V80"/>
</svg>
