<?xml version="1.0" encoding="utf-8"?>
<!-- Generator: Adobe Illustrator 22.1.0, SVG Export Plug-In . SVG Version: 6.00 Build 0)  -->
<svg version="1.1" id="Capa_1" xmlns="http://www.w3.org/2000/svg" xmlns:xlink="http://www.w3.org/1999/xlink" x="0px" y="0px"
	 viewBox="0 0 195 195" style="enable-background:new 0 0 195 195;" xml:space="preserve">
<style type="text/css">
	.st0{fill:#0A4080;}
</style>
<path class="st0" d="M97.5,0C43.7,0,0,43.7,0,97.5S43.7,195,97.5,195S195,151.3,195,97.5S151.3,0,97.5,0z M69.2,147.4H45.4V76h23.7
	L69.2,147.4L69.2,147.4z M57.3,66.2h-0.2c-8,0-13.1-5.5-13.1-12.3c0-7,5.3-12.3,13.4-12.3s13.1,5.3,13.3,12.3
	C70.7,60.7,65.6,66.2,57.3,66.2z M154.8,147.4H131v-38.2c0-9.6-3.4-16.2-12-16.2c-6.6,0-10.5,4.4-12.2,8.7c-0.6,1.5-0.8,3.7-0.8,5.8
	v39.9H82.3c0,0,0.3-64.7,0-71.4H106v10.1c3.2-4.9,8.8-11.8,21.4-11.8c15.6,0,27.3,10.2,27.3,32.2v40.9H154.8z"/>
</svg>
