<svg width="409" height="56" viewBox="0 0 409 56" fill="none" xmlns="http://www.w3.org/2000/svg">
<path d="M1.98941 54.0125C8.77682 42.4384 13.9259 30.0459 17.2026 17.1858C18.8409 25.3695 20.4793 33.6701 24.9262 40.6847C28.2029 33.3194 31.4795 25.9541 34.7562 18.5887C36.9797 27.357 38.267 36.8267 42.3628 46.4133C45.8735 54.5971 53.2461 52.3758 56.4057 49.9207" stroke="#FFB317" stroke-width="3.4016" stroke-miterlimit="10" stroke-linecap="round" stroke-linejoin="round"/>
<path d="M60.9697 27.9416C56.4057 24.2004 48.5651 25.6034 45.6395 30.7474C44.1182 33.5533 44.8203 38.2297 47.98 38.5804C49.7354 38.8142 51.2567 37.6451 52.5439 36.476C55.8206 33.6702 58.8632 30.7474 61.6718 27.5908C61.7889 30.046 62.491 36.8268 62.9591 37.2944C64.3634 38.6973 66.5869 37.0606 67.8741 35.5407C71.0338 31.6827 74.0764 27.8247 77.2361 24.0835C78.4063 29.9291 78.9914 35.7746 78.9914 41.6201C81.683 37.1775 84.6086 27.5908 86.9491 28.2923C89.2896 28.9938 87.8853 36.2422 88.2364 40.2172C88.3534 40.9186 88.9385 42.0877 88.9385 42.0877C88.8215 41.8539 93.2684 34.6055 93.6195 33.4364C94.7897 29.9291 96.311 27.357 96.8962 26.071C95.0238 29.1107 94.0876 32.7349 94.3216 36.2422C94.4386 37.762 94.9067 39.3988 96.194 40.1002C99.4707 41.6201 102.864 37.8789 103.567 36.5929C105.673 32.7349 107.077 29.8121 108.482 25.6034C108.013 29.9291 109.184 39.9833 114.216 40.8017C119.248 41.737 121.12 38.1128 124.397 33.3194C127.674 28.5261 126.971 23.6159 124.865 22.6806C122.759 21.7453 120.535 25.3696 121.003 30.2798C121.237 33.2025 121.003 34.7224 124.28 37.6451C126.386 39.6326 130.599 40.1002 133.993 36.3591C143.004 26.5387 152.249 0.467671 141.833 1.9875C134.812 3.50734 133.993 23.3821 139.376 33.0856C140.429 35.0731 141.951 36.9437 144.174 37.4113C146.397 37.8789 150.844 33.4364 153.185 27.5908" stroke="#FFB317" stroke-width="3.4016" stroke-miterlimit="10" stroke-linecap="round" stroke-linejoin="round"/>
<path d="M166.994 25.0188C165.589 22.2129 161.728 21.1608 158.802 22.2129C155.876 23.2651 153.77 26.1879 152.717 29.1106C151.078 40.4509 159.27 39.2818 162.781 33.0856C165.004 29.929 166.76 26.4217 167.93 22.7975C166.292 27.4739 168.749 36.3591 173.313 38.1127C177.877 39.8664 183.845 38.1127 187.356 34.6054C190.867 31.0981 194.728 24.9019 196.835 20.4593" stroke="#FFB317" stroke-width="3.4016" stroke-miterlimit="10" stroke-linecap="round" stroke-linejoin="round"/>
<path d="M233.581 27.2401C227.729 24.0835 219.187 27.8246 217.782 34.3716C217.548 35.4238 217.431 36.7098 217.899 37.6451C218.718 39.6326 221.176 40.4509 223.282 40.1002C225.389 39.6326 227.144 38.2296 228.665 36.7098C234.985 30.2797 240.134 15.8998 241.304 5.37787C238.847 11.691 233.698 25.2526 232.644 31.9165C232.059 35.5407 232.878 40.4509 236.623 40.4509C240.134 40.4509 243.059 30.6305 242.474 27.5908C241.304 32.2672 242.474 36.9436 243.645 38.1127C246.219 40.6848 249.496 39.2818 251.836 35.7745C254.06 32.501 254.411 26.1879 251.251 23.8497C248.209 21.3946 242.474 23.6159 242.474 27.5908C242.474 30.8643 245.868 33.2025 249.145 33.2025C252.421 33.0856 255.347 31.215 257.805 29.2276C260.379 27.1232 262.837 24.6681 265.06 22.096C267.284 26.3048 268.571 30.9812 268.922 35.7745C269.156 39.5157 268.454 43.7244 265.528 46.0626C262.603 48.4008 256.985 46.5303 257.102 42.7891C257.219 41.2693 258.039 39.9833 259.092 38.9311C264.124 33.0856 271.847 29.6952 279.454 29.929" stroke="#FFB317" stroke-width="3.4016" stroke-miterlimit="10" stroke-linecap="round" stroke-linejoin="round"/>
<path d="M316.083 11.3403C314.795 6.07935 307.657 2.80586 302.508 5.14407C297.242 7.48227 295.486 14.7307 299.114 18.9395C300.401 20.4593 302.157 21.5115 303.795 22.7975C307.54 25.6034 310.583 29.2276 311.87 33.5533C313.04 37.8789 312.104 42.9061 308.593 45.9457C305.199 49.1023 299.231 49.6869 295.603 46.881C291.976 44.0752 291.976 37.762 295.955 35.4238" stroke="#FFB317" stroke-width="3.5112" stroke-miterlimit="10" stroke-linecap="round" stroke-linejoin="round"/>
<path d="M329.541 28.7599C322.402 26.8894 314.327 33.3194 315.147 40.2171C315.264 41.5032 315.849 42.9061 317.019 43.6075C319.125 44.7766 321.583 43.1399 323.221 41.5032C326.264 38.4635 328.721 34.9562 330.711 31.2151C330.711 34.0209 329.306 36.5929 329.072 39.2819C328.838 41.9708 330.594 45.4781 333.519 45.2443C335.977 45.0105 337.264 42.6723 338.2 40.5679C339.839 36.8267 341.477 33.0856 343.115 29.2276C343.466 31.7996 343.935 34.4885 344.286 37.0606C344.52 38.8142 345.69 41.1524 347.562 40.6848C348.498 40.451 348.967 39.3988 349.318 38.4635C350.488 35.4238 351.658 32.3842 352.828 29.3445C355.754 31.0981 355.403 35.0731 355.871 38.3466C356.339 41.6201 362.541 42.0877 364.882 31.5658" stroke="#FFB317" stroke-width="3.5112" stroke-miterlimit="10" stroke-linecap="round" stroke-linejoin="round"/>
<path d="M366.52 11.2234C365.935 17.0689 365.233 22.7975 364.648 28.643C364.18 32.7349 363.946 37.1775 366.52 40.334C369.212 43.4906 375.297 42.3215 377.637 35.3069" stroke="#FFB317" stroke-width="3.5112" stroke-miterlimit="10" stroke-linecap="round" stroke-linejoin="round"/>
<path d="M360.084 20.5762C364.297 20.5762 368.393 20.5762 372.605 20.5762" stroke="#FFB317" stroke-width="3.5112" stroke-miterlimit="10" stroke-linecap="round" stroke-linejoin="round"/>
<path d="M377.638 32.8518C375.297 39.8664 380.212 41.8539 382.67 41.5032C386.999 41.0355 388.872 37.4113 388.755 33.7871C388.638 29.8121 385.361 24.785 381.499 26.3048C377.755 27.8247 379.51 33.5533 383.372 34.9562C390.627 37.5282 398.351 34.0209 401.627 31.7996C404.202 30.046 407.011 26.8894 405.255 24.4343C403.149 21.5115 397.649 24.6681 397.766 28.1754C397.883 31.6827 400.925 34.4885 403.5 37.1775C405.957 39.8664 408.181 43.7245 406.308 46.881C404.553 49.8038 400.106 50.2714 396.947 48.7516" stroke="#FFB317" stroke-width="3.5112" stroke-miterlimit="10" stroke-linecap="round" stroke-linejoin="round"/>
</svg>
