<svg width="60" height="42" viewBox="0 0 60 42" fill="none" xmlns="http://www.w3.org/2000/svg">
<g clip-path="url(#clip0)">
<path d="M2.04406 42C1.68334 42 1.32262 41.8797 0.961897 41.7593C-2.65911e-05 41.1576 -0.360748 39.9542 0.240454 38.9914C7.09416 27.3181 12.2645 14.6819 15.7515 1.56447C15.992 0.601719 16.8336 0 17.7956 0C18.7575 0 19.5992 0.722063 19.7194 1.68481C21.0421 8.42407 22.4849 15.404 25.491 21.6619L33.9078 2.76791C34.2685 1.9255 35.1102 1.44413 35.9519 1.56447C36.7936 1.68481 37.515 2.28653 37.7555 3.12894C38.4769 5.7765 38.9579 8.42407 39.5591 11.192C41.002 17.8109 42.4449 24.6705 45.3306 31.4097C46.4128 33.937 47.8557 35.3811 49.7795 35.8625C52.1843 36.4642 54.9499 35.5014 56.6332 34.1777C57.4749 33.4556 58.7976 33.6963 59.519 34.5387C60.2405 35.3811 60 36.7049 59.1583 37.4269C56.8737 39.2321 52.7855 40.9169 48.8176 39.8338C46.6533 39.2321 43.6473 37.6676 41.6032 32.9742C38.5972 25.8739 37.034 18.7736 35.5912 12.0344C35.4709 11.3123 35.3507 10.7106 35.1102 9.98854L27.535 27.0774C27.1743 27.7994 26.5731 28.2808 25.8517 28.2808C25.1302 28.2808 24.4088 27.9198 23.9278 27.3181C20.6813 22.1433 18.7575 16.2464 17.4348 10.4699C14.0681 21.1805 9.49897 31.4097 3.84767 41.0372C3.48695 41.639 2.7655 42 2.04406 42Z" fill="#DCA411"/>
</g>
<defs>
<clipPath id="clip0">
<rect width="60" height="42" fill="white"/>
</clipPath>
</defs>
</svg>
