<?xml version="1.0" encoding="utf-8"?>
<!-- Generator: Adobe Illustrator 22.1.0, SVG Export Plug-In . SVG Version: 6.00 Build 0)  -->
<svg version="1.1" id="Capa_1" xmlns="http://www.w3.org/2000/svg" xmlns:xlink="http://www.w3.org/1999/xlink" x="0px" y="0px"
	 viewBox="0 0 195 195" style="enable-background:new 0 0 195 195;" xml:space="preserve">
<style type="text/css">
	.st0{fill:#0A4080;}
</style>
<title>Monogram</title>
<desc>Created with Sketch.</desc>
<path class="st0" d="M97.5,0C43.7,0,0,43.7,0,97.5S43.7,195,97.5,195S195,151.3,195,97.5S151.3,0,97.5,0z M146.1,131.7l9.2,9v2H109
	v-2l9.6-9.3c0.9-0.9,0.9-1.2,0.9-2.6V75.2L93,142.6h-3.6L58.5,75.2v45.2c-0.3,1.9,0.4,3.8,1.7,5.1l12.4,15.2v2H37.4v-2l12.5-15.1
	c1.4-1.4,1.9-3.3,1.6-5.1V68.2c0.2-1.4-0.5-2.9-1.5-3.9L38.9,51v-2h34.3l26.5,58.1L122.9,49h32.7v2h0l-9.5,9
	c-0.8,0.6-1.2,1.6-1.1,2.6v66.5C144.8,130.1,145.3,131.1,146.1,131.7z"/>
</svg>
