<?xml version="1.0" encoding="utf-8"?>
<!-- Generator: Adobe Illustrator 22.1.0, SVG Export Plug-In . SVG Version: 6.00 Build 0)  -->
<svg version="1.1" id="Capa_1" xmlns="http://www.w3.org/2000/svg" xmlns:xlink="http://www.w3.org/1999/xlink" x="0px" y="0px"
	 viewBox="0 0 547.5 391.5" style="enable-background:new 0 0 547.5 391.5;" xml:space="preserve">
<style type="text/css">
	.st0{clip-path:url(#SVGID_2_);}
	.st1{fill:#BC4614;}
	.st2{fill:#272727;}
	.st3{clip-path:url(#SVGID_4_);}
	.st4{fill:#FFFFFF;}
	.st5{clip-path:url(#SVGID_6_);}
</style>
<g>
	<defs>
		<rect id="SVGID_1_" x="152.8" y="278" width="257" height="113.5"/>
	</defs>
	<clipPath id="SVGID_2_">
		<use xlink:href="#SVGID_1_"  style="overflow:visible;"/>
	</clipPath>
	<g class="st0">
		<path class="st1" d="M318.8,278c-14.8,0-28.1,16.6-37.5,25c-9.4-8.4-22.7-25-37.5-25c-29,0-71,39-91,45
			c25.2,62,104,68.5,128.5,68.5S384.6,385,409.8,323C383.8,320,347.8,278,318.8,278z"/>
	</g>
</g>
<circle class="st2" cx="7.5" cy="97" r="7.5"/>
<g>
	<defs>
		<rect id="SVGID_3_" x="316.5" y="0" width="231" height="109"/>
	</defs>
	<clipPath id="SVGID_4_">
		<use xlink:href="#SVGID_3_"  style="overflow:visible;"/>
	</clipPath>
	<g class="st3">
		<path d="M518.1,47.9l8.6,9.6l20.8-18.7l-8.6-9.6L518.1,47.9z"/>
		<path d="M503,35l11.2,6.5l14-24.3L517,10.7L503,35z"/>
		<path d="M482,27l12.4,3.5l7.6-27l-12.4-3.5L482,27z"/>
		<path class="st4" d="M545.4,61.6c0,0-51.2,47.4-114.4,47.4c-63.2,0-114.4-47.4-114.4-47.4s51.2-47.4,114.4-47.4
			C494.1,14.1,545.4,61.6,545.4,61.6z"/>
		<path d="M411.8,86.2c18.4,0,33.3-15,33.3-33.4c0-18.5-14.9-33.4-33.3-33.4c-18.4,0-33.3,15-33.3,33.4
			C378.5,71.3,393.4,86.2,411.8,86.2z"/>
	</g>
</g>
<g>
	<defs>
		<rect id="SVGID_5_" x="15" y="0" width="231" height="109"/>
	</defs>
	<clipPath id="SVGID_6_">
		<use xlink:href="#SVGID_5_"  style="overflow:visible;"/>
	</clipPath>
	<g class="st5">
		<path d="M23.6,29.2L15,38.8l20.8,18.7l8.6-9.6L23.6,29.2z"/>
		<path d="M45.5,10.7l-11.2,6.5l14,24.3L59.5,35L45.5,10.7z"/>
		<path d="M72.9,0.1L60.5,3.6l7.6,27L80.5,27L72.9,0.1z"/>
		<path class="st4" d="M131.6,14.1c63.2,0,114.4,47.4,114.4,47.4S194.8,109,131.6,109C68.4,109,17.1,61.6,17.1,61.6
			S68.4,14.1,131.6,14.1z"/>
		<path d="M137.1,52.8c0-18.5-14.9-33.4-33.3-33.4c-18.4,0-33.3,15-33.3,33.4c0,18.5,14.9,33.4,33.3,33.4
			C122.2,86.2,137.1,71.3,137.1,52.8z"/>
	</g>
</g>
</svg>
